<svg xmlns="http://www.w3.org/2000/svg" viewBox="0 0 500 500" width="500" height="500">
  <path fill="#7D4948" fill-rule="evenodd" d="M 250.0,436.5 L62.5,250.0 L249.0,62.5 L436.5,249.0 L250.0,436.5 Z M 250.5,318.0 L318.5,249.0 L249.0,180.5 L180.5,250.0 L249.0,318.5 L250.5,318.0 Z M 154.5,238.0 L238.5,153.0 L238.0,111.5 L111.5,238.0 L154.5,238.0 Z M 387.5,238.0 L260.5,112.0 L260.5,154.0 L279.0,172.5 L346.0,238.5 L387.5,238.0 Z M 238.5,387.0 L238.5,345.0 L221.0,327.5 L153.0,260.5 L111.5,261.0 L238.5,387.0 Z M 261.5,387.0 L387.0,260.5 L345.0,260.5 L312.5,293.0 L260.5,346.0 L261.5,387.0 Z M 250.0,275.5 L223.5,250.0 L249.0,223.5 L275.5,249.0 L250.0,275.5 Z"/>
</svg>