<svg xmlns="http://www.w3.org/2000/svg" viewBox="0 0 500 500" width="500" height="500">
  <path fill="#5D686D" fill-rule="evenodd" d="M 250.0,349.3 L115.0,215.0 L249.3,80.0 L384.3,214.3 L250.0,349.3 Z M 250.4,264.0 L299.3,214.3 L249.3,165.0 L200.0,215.0 L249.3,264.3 L250.4,264.0 Z M 181.2,206.4 L241.7,145.2 L241.4,115.3 L150.3,206.4 L181.2,206.4 Z M 349.0,206.4 L257.6,115.6 L257.6,145.9 L270.9,159.2 L319.1,206.7 L349.0,206.4 Z M 241.7,313.6 L241.7,283.4 L229.1,270.8 L180.2,222.6 L150.3,222.9 L241.7,313.6 Z M 258.3,313.6 L348.6,222.6 L318.4,222.6 L295.0,246.0 L257.6,284.1 L258.3,313.6 Z M 250.0,233.4 L230.9,215.0 L249.3,195.9 L268.4,214.3 L250.0,233.4 Z"/>
  <text x="250" y="430"
        font-family="Montserrat, Arial, sans-serif"
        font-weight="800"
        font-size="85"
        fill="#5D686D"
        text-anchor="middle"
        letter-spacing="-1">MAKO</text>
  <text x="250" y="500"
        font-family="Montserrat, Arial, sans-serif"
        font-weight="400"
        font-size="72"
        fill="#5D686D"
        text-anchor="middle">Consult</text>
</svg>