<?xml version="1.0" encoding="UTF-8" standalone="no"?>
<!DOCTYPE svg PUBLIC "-//W3C//DTD SVG 1.1//EN" "http://www.w3.org/Graphics/SVG/1.1/DTD/svg11.dtd">
<svg width="100%" height="100%" viewBox="0 0 2712 359" version="1.1" xmlns="http://www.w3.org/2000/svg" xmlns:xlink="http://www.w3.org/1999/xlink" xml:space="preserve" xmlns:serif="http://www.serif.com/" style="fill-rule:evenodd;clip-rule:evenodd;stroke-linejoin:round;stroke-miterlimit:2;">
    <g transform="matrix(1,0,0,1,-130,-220)">
        <path d="M310,579L130,400L309,220L489,399L310,579ZM310.5,465.3L375.8,399L309,333.3L243.3,400L309,465.8L310.5,465.3ZM218.3,388.5L299,306.9L298.5,267L177,388.5L218.3,388.5ZM442,388.5L320.1,267.5L320.1,307.8L337.8,325.6L402.2,389L442,388.5ZM299,531.5L299,491.2L282.2,474.4L216.9,410.1L177,410.6L299,531.5ZM321,531.5L441.5,410.1L401.2,410.1L370,441.3L320.1,492.2L321,531.5ZM310,424.5L284.6,400L309,374.6L334.5,399L310,424.5Z" style="fill:rgb(34,34,34);"/>
    </g>
    <g transform="matrix(1,0,0,1,460,270)">
        <text x="0px" y="0px" style="font-family:'Montserrat-Regular', 'Montserrat';font-size:320px;fill:rgb(34,34,34);">M<tspan x="292.8px 509.44px 711.68px " y="0px 0px 0px ">AKO</tspan></text>
    </g>
    <g transform="matrix(1,0,0,1,1490,270)">
        <text x="0px" y="0px" style="font-family:'Montserrat-Regular', 'Montserrat';font-size:320px;fill:rgb(34,34,34);">C<tspan x="219.52px " y="0px ">o</tspan>nsul<tspan x="1090.88px " y="0px ">t</tspan></text>
    </g>
</svg>
