<svg viewBox="0 0 359 359" xmlns="http://www.w3.org/2000/svg" fill-rule="evenodd" clip-rule="evenodd" stroke-linejoin="round" stroke-miterlimit="2">
  <path d="M180,359L0,180L179,0L359,179L180,359ZM180.5,245.3L245.8,179L179,113.3L113.3,180L179,245.8L180.5,245.3ZM88.3,168.5L169,86.9L168.5,47L47,168.5L88.3,168.5ZM312,168.5L190.1,47.5L190.1,87.8L207.8,105.6L272.2,169L312,168.5ZM169,311.5L169,271.2L152.2,254.4L86.9,190.1L47,190.6L169,311.5ZM191,311.5L311.5,190.1L271.2,190.1L240,221.3L190.1,272.2L191,311.5ZM180,204.5L154.6,180L179,154.6L204.5,179L180,204.5Z" fill="#7D4948"/>
</svg>
